<?xml version="1.0" encoding="UTF-8"?>
<svg xmlns="http://www.w3.org/2000/svg" xmlns:xlink="http://www.w3.org/1999/xlink"
     width="1000" height="650.0" viewBox="-2.0 -1.3 4 2.6">
<defs>
<radialGradient cx="-2.0" cy="0.0" r="0.2" gradientUnits="userSpaceOnUse" id="d0">
<stop offset="0" stop-color="white" stop-opacity="1" />
<stop offset="1" stop-color="blue" stop-opacity="1" />
</radialGradient>
<radialGradient cx="-1.5" cy="-0.8660254037844386" r="0.2" gradientUnits="userSpaceOnUse" id="d1">
<stop offset="0" stop-color="white" stop-opacity="1" />
<stop offset="1" stop-color="blue" stop-opacity="1" />
</radialGradient>
<radialGradient cx="-1.5" cy="0.8660254037844386" r="0.2" gradientUnits="userSpaceOnUse" id="d2">
<stop offset="0" stop-color="white" stop-opacity="1" />
<stop offset="1" stop-color="blue" stop-opacity="1" />
</radialGradient>
<radialGradient cx="-1.0" cy="0.0" r="0.2" gradientUnits="userSpaceOnUse" id="d3">
<stop offset="0" stop-color="white" stop-opacity="1" />
<stop offset="1" stop-color="blue" stop-opacity="1" />
</radialGradient>
<radialGradient cx="-0.5" cy="-0.8660254037844386" r="0.2" gradientUnits="userSpaceOnUse" id="d4">
<stop offset="0" stop-color="white" stop-opacity="1" />
<stop offset="1" stop-color="blue" stop-opacity="1" />
</radialGradient>
<radialGradient cx="-0.5" cy="0.8660254037844386" r="0.2" gradientUnits="userSpaceOnUse" id="d5">
<stop offset="0" stop-color="white" stop-opacity="1" />
<stop offset="1" stop-color="blue" stop-opacity="1" />
</radialGradient>
<radialGradient cx="0.0" cy="0.0" r="0.2" gradientUnits="userSpaceOnUse" id="d6">
<stop offset="0" stop-color="white" stop-opacity="1" />
<stop offset="1" stop-color="blue" stop-opacity="1" />
</radialGradient>
<radialGradient cx="0.5" cy="-0.8660254037844386" r="0.2" gradientUnits="userSpaceOnUse" id="d7">
<stop offset="0" stop-color="white" stop-opacity="1" />
<stop offset="1" stop-color="blue" stop-opacity="1" />
</radialGradient>
<radialGradient cx="0.5" cy="0.8660254037844386" r="0.2" gradientUnits="userSpaceOnUse" id="d8">
<stop offset="0" stop-color="white" stop-opacity="1" />
<stop offset="1" stop-color="blue" stop-opacity="1" />
</radialGradient>
<radialGradient cx="1.0" cy="0.0" r="0.2" gradientUnits="userSpaceOnUse" id="d9">
<stop offset="0" stop-color="white" stop-opacity="1" />
<stop offset="1" stop-color="blue" stop-opacity="1" />
</radialGradient>
<radialGradient cx="1.5" cy="-0.8660254037844386" r="0.2" gradientUnits="userSpaceOnUse" id="d10">
<stop offset="0" stop-color="white" stop-opacity="1" />
<stop offset="1" stop-color="blue" stop-opacity="1" />
</radialGradient>
<radialGradient cx="1.5" cy="0.8660254037844386" r="0.2" gradientUnits="userSpaceOnUse" id="d11">
<stop offset="0" stop-color="white" stop-opacity="1" />
<stop offset="1" stop-color="blue" stop-opacity="1" />
</radialGradient>
<radialGradient cx="2.0" cy="0.0" r="0.2" gradientUnits="userSpaceOnUse" id="d12">
<stop offset="0" stop-color="white" stop-opacity="1" />
<stop offset="1" stop-color="blue" stop-opacity="1" />
</radialGradient>
<radialGradient cx="-2.0" cy="-1.1547005383792515" r="0.1" gradientUnits="userSpaceOnUse" id="d13">
<stop offset="0" stop-color="white" stop-opacity="1" />
<stop offset="1" stop-color="red" stop-opacity="1" />
</radialGradient>
<radialGradient cx="-2.0" cy="0.5773502691896257" r="0.1" gradientUnits="userSpaceOnUse" id="d14">
<stop offset="0" stop-color="white" stop-opacity="1" />
<stop offset="1" stop-color="red" stop-opacity="1" />
</radialGradient>
<radialGradient cx="-1.5" cy="-0.2886751345948129" r="0.1" gradientUnits="userSpaceOnUse" id="d15">
<stop offset="0" stop-color="white" stop-opacity="1" />
<stop offset="1" stop-color="red" stop-opacity="1" />
</radialGradient>
<radialGradient cx="-1.0" cy="-1.1547005383792515" r="0.1" gradientUnits="userSpaceOnUse" id="d16">
<stop offset="0" stop-color="white" stop-opacity="1" />
<stop offset="1" stop-color="red" stop-opacity="1" />
</radialGradient>
<radialGradient cx="-1.0" cy="0.5773502691896257" r="0.1" gradientUnits="userSpaceOnUse" id="d17">
<stop offset="0" stop-color="white" stop-opacity="1" />
<stop offset="1" stop-color="red" stop-opacity="1" />
</radialGradient>
<radialGradient cx="-0.5" cy="-0.2886751345948129" r="0.1" gradientUnits="userSpaceOnUse" id="d18">
<stop offset="0" stop-color="white" stop-opacity="1" />
<stop offset="1" stop-color="red" stop-opacity="1" />
</radialGradient>
<radialGradient cx="0.0" cy="-1.1547005383792515" r="0.1" gradientUnits="userSpaceOnUse" id="d19">
<stop offset="0" stop-color="white" stop-opacity="1" />
<stop offset="1" stop-color="red" stop-opacity="1" />
</radialGradient>
<radialGradient cx="0.0" cy="0.5773502691896257" r="0.1" gradientUnits="userSpaceOnUse" id="d20">
<stop offset="0" stop-color="white" stop-opacity="1" />
<stop offset="1" stop-color="red" stop-opacity="1" />
</radialGradient>
<radialGradient cx="0.5" cy="-0.2886751345948129" r="0.1" gradientUnits="userSpaceOnUse" id="d21">
<stop offset="0" stop-color="white" stop-opacity="1" />
<stop offset="1" stop-color="red" stop-opacity="1" />
</radialGradient>
<radialGradient cx="1.0" cy="-1.1547005383792515" r="0.1" gradientUnits="userSpaceOnUse" id="d22">
<stop offset="0" stop-color="white" stop-opacity="1" />
<stop offset="1" stop-color="red" stop-opacity="1" />
</radialGradient>
<radialGradient cx="1.0" cy="0.5773502691896257" r="0.1" gradientUnits="userSpaceOnUse" id="d23">
<stop offset="0" stop-color="white" stop-opacity="1" />
<stop offset="1" stop-color="red" stop-opacity="1" />
</radialGradient>
<radialGradient cx="1.5" cy="-0.2886751345948129" r="0.1" gradientUnits="userSpaceOnUse" id="d24">
<stop offset="0" stop-color="white" stop-opacity="1" />
<stop offset="1" stop-color="red" stop-opacity="1" />
</radialGradient>
<radialGradient cx="2.0" cy="-1.1547005383792515" r="0.1" gradientUnits="userSpaceOnUse" id="d25">
<stop offset="0" stop-color="white" stop-opacity="1" />
<stop offset="1" stop-color="red" stop-opacity="1" />
</radialGradient>
<radialGradient cx="2.0" cy="0.5773502691896257" r="0.1" gradientUnits="userSpaceOnUse" id="d26">
<stop offset="0" stop-color="white" stop-opacity="1" />
<stop offset="1" stop-color="red" stop-opacity="1" />
</radialGradient>
</defs>
<path d="M-2.0,-0.0 L-1.0,-0.0" stroke="black" stroke-width="0.01" />
<path d="M-2.0,-0.0 L-1.5,-0.8660254037844386" stroke="black" stroke-width="0.01" />
<path d="M-2.0,-0.0 L-1.5,0.8660254037844386" stroke="black" stroke-width="0.01" />
<path d="M-2.0,-0.0 L-3.0,-0.0" stroke="black" stroke-width="0.01" />
<path d="M-2.0,-0.0 L-2.5,0.8660254037844386" stroke="black" stroke-width="0.01" />
<path d="M-2.0,-0.0 L-2.5,-0.8660254037844386" stroke="black" stroke-width="0.01" />
<path d="M-1.5,-0.8660254037844386 L-0.5,-0.8660254037844386" stroke="black" stroke-width="0.01" />
<path d="M-1.5,-0.8660254037844386 L-1.0,-1.7320508075688772" stroke="black" stroke-width="0.01" />
<path d="M-1.5,-0.8660254037844386 L-1.0,-0.0" stroke="black" stroke-width="0.01" />
<path d="M-1.5,-0.8660254037844386 L-2.5,-0.8660254037844386" stroke="black" stroke-width="0.01" />
<path d="M-1.5,-0.8660254037844386 L-2.0,-0.0" stroke="black" stroke-width="0.01" />
<path d="M-1.5,-0.8660254037844386 L-2.0,-1.7320508075688772" stroke="black" stroke-width="0.01" />
<path d="M-1.5,0.8660254037844386 L-0.5,0.8660254037844386" stroke="black" stroke-width="0.01" />
<path d="M-1.5,0.8660254037844386 L-1.0,-0.0" stroke="black" stroke-width="0.01" />
<path d="M-1.5,0.8660254037844386 L-1.0,1.7320508075688772" stroke="black" stroke-width="0.01" />
<path d="M-1.5,0.8660254037844386 L-2.5,0.8660254037844386" stroke="black" stroke-width="0.01" />
<path d="M-1.5,0.8660254037844386 L-2.0,1.7320508075688772" stroke="black" stroke-width="0.01" />
<path d="M-1.5,0.8660254037844386 L-2.0,-0.0" stroke="black" stroke-width="0.01" />
<path d="M-1.0,-0.0 L0.0,-0.0" stroke="black" stroke-width="0.01" />
<path d="M-1.0,-0.0 L-0.5,-0.8660254037844386" stroke="black" stroke-width="0.01" />
<path d="M-1.0,-0.0 L-0.5,0.8660254037844386" stroke="black" stroke-width="0.01" />
<path d="M-1.0,-0.0 L-2.0,-0.0" stroke="black" stroke-width="0.01" />
<path d="M-1.0,-0.0 L-1.5,0.8660254037844386" stroke="black" stroke-width="0.01" />
<path d="M-1.0,-0.0 L-1.5,-0.8660254037844386" stroke="black" stroke-width="0.01" />
<path d="M-0.5,-0.8660254037844386 L0.5,-0.8660254037844386" stroke="black" stroke-width="0.01" />
<path d="M-0.5,-0.8660254037844386 L0.0,-1.7320508075688772" stroke="black" stroke-width="0.01" />
<path d="M-0.5,-0.8660254037844386 L0.0,-0.0" stroke="black" stroke-width="0.01" />
<path d="M-0.5,-0.8660254037844386 L-1.5,-0.8660254037844386" stroke="black" stroke-width="0.01" />
<path d="M-0.5,-0.8660254037844386 L-1.0,-0.0" stroke="black" stroke-width="0.01" />
<path d="M-0.5,-0.8660254037844386 L-1.0,-1.7320508075688772" stroke="black" stroke-width="0.01" />
<path d="M-0.5,0.8660254037844386 L0.5,0.8660254037844386" stroke="black" stroke-width="0.01" />
<path d="M-0.5,0.8660254037844386 L0.0,-0.0" stroke="black" stroke-width="0.01" />
<path d="M-0.5,0.8660254037844386 L0.0,1.7320508075688772" stroke="black" stroke-width="0.01" />
<path d="M-0.5,0.8660254037844386 L-1.5,0.8660254037844386" stroke="black" stroke-width="0.01" />
<path d="M-0.5,0.8660254037844386 L-1.0,1.7320508075688772" stroke="black" stroke-width="0.01" />
<path d="M-0.5,0.8660254037844386 L-1.0,-0.0" stroke="black" stroke-width="0.01" />
<path d="M0.0,-0.0 L1.0,-0.0" stroke="black" stroke-width="0.01" />
<path d="M0.0,-0.0 L0.5,-0.8660254037844386" stroke="black" stroke-width="0.01" />
<path d="M0.0,-0.0 L0.5,0.8660254037844386" stroke="black" stroke-width="0.01" />
<path d="M0.0,-0.0 L-1.0,-0.0" stroke="black" stroke-width="0.01" />
<path d="M0.0,-0.0 L-0.5,0.8660254037844386" stroke="black" stroke-width="0.01" />
<path d="M0.0,-0.0 L-0.5,-0.8660254037844386" stroke="black" stroke-width="0.01" />
<path d="M0.5,-0.8660254037844386 L1.5,-0.8660254037844386" stroke="black" stroke-width="0.01" />
<path d="M0.5,-0.8660254037844386 L1.0,-1.7320508075688772" stroke="black" stroke-width="0.01" />
<path d="M0.5,-0.8660254037844386 L1.0,-0.0" stroke="black" stroke-width="0.01" />
<path d="M0.5,-0.8660254037844386 L-0.5,-0.8660254037844386" stroke="black" stroke-width="0.01" />
<path d="M0.5,-0.8660254037844386 L0.0,-0.0" stroke="black" stroke-width="0.01" />
<path d="M0.5,-0.8660254037844386 L0.0,-1.7320508075688772" stroke="black" stroke-width="0.01" />
<path d="M0.5,0.8660254037844386 L1.5,0.8660254037844386" stroke="black" stroke-width="0.01" />
<path d="M0.5,0.8660254037844386 L1.0,-0.0" stroke="black" stroke-width="0.01" />
<path d="M0.5,0.8660254037844386 L1.0,1.7320508075688772" stroke="black" stroke-width="0.01" />
<path d="M0.5,0.8660254037844386 L-0.5,0.8660254037844386" stroke="black" stroke-width="0.01" />
<path d="M0.5,0.8660254037844386 L0.0,1.7320508075688772" stroke="black" stroke-width="0.01" />
<path d="M0.5,0.8660254037844386 L0.0,-0.0" stroke="black" stroke-width="0.01" />
<path d="M1.0,-0.0 L2.0,-0.0" stroke="black" stroke-width="0.01" />
<path d="M1.0,-0.0 L1.5,-0.8660254037844386" stroke="black" stroke-width="0.01" />
<path d="M1.0,-0.0 L1.5,0.8660254037844386" stroke="black" stroke-width="0.01" />
<path d="M1.0,-0.0 L0.0,-0.0" stroke="black" stroke-width="0.01" />
<path d="M1.0,-0.0 L0.5,0.8660254037844386" stroke="black" stroke-width="0.01" />
<path d="M1.0,-0.0 L0.5,-0.8660254037844386" stroke="black" stroke-width="0.01" />
<path d="M1.5,-0.8660254037844386 L2.5,-0.8660254037844386" stroke="black" stroke-width="0.01" />
<path d="M1.5,-0.8660254037844386 L2.0,-1.7320508075688772" stroke="black" stroke-width="0.01" />
<path d="M1.5,-0.8660254037844386 L2.0,-0.0" stroke="black" stroke-width="0.01" />
<path d="M1.5,-0.8660254037844386 L0.5,-0.8660254037844386" stroke="black" stroke-width="0.01" />
<path d="M1.5,-0.8660254037844386 L1.0,-0.0" stroke="black" stroke-width="0.01" />
<path d="M1.5,-0.8660254037844386 L1.0,-1.7320508075688772" stroke="black" stroke-width="0.01" />
<path d="M1.5,0.8660254037844386 L2.5,0.8660254037844386" stroke="black" stroke-width="0.01" />
<path d="M1.5,0.8660254037844386 L2.0,-0.0" stroke="black" stroke-width="0.01" />
<path d="M1.5,0.8660254037844386 L2.0,1.7320508075688772" stroke="black" stroke-width="0.01" />
<path d="M1.5,0.8660254037844386 L0.5,0.8660254037844386" stroke="black" stroke-width="0.01" />
<path d="M1.5,0.8660254037844386 L1.0,1.7320508075688772" stroke="black" stroke-width="0.01" />
<path d="M1.5,0.8660254037844386 L1.0,-0.0" stroke="black" stroke-width="0.01" />
<path d="M2.0,-0.0 L3.0,-0.0" stroke="black" stroke-width="0.01" />
<path d="M2.0,-0.0 L2.5,-0.8660254037844386" stroke="black" stroke-width="0.01" />
<path d="M2.0,-0.0 L2.5,0.8660254037844386" stroke="black" stroke-width="0.01" />
<path d="M2.0,-0.0 L1.0,-0.0" stroke="black" stroke-width="0.01" />
<path d="M2.0,-0.0 L1.5,0.8660254037844386" stroke="black" stroke-width="0.01" />
<path d="M2.0,-0.0 L1.5,-0.8660254037844386" stroke="black" stroke-width="0.01" />
<circle cx="-2.0" cy="-0.0" r="0.2" stroke="black" stroke-width="0.01" fill="url(#d0)" />
<circle cx="-1.5" cy="-0.8660254037844386" r="0.2" stroke="black" stroke-width="0.01" fill="url(#d1)" />
<circle cx="-1.5" cy="0.8660254037844386" r="0.2" stroke="black" stroke-width="0.01" fill="url(#d2)" />
<circle cx="-1.0" cy="-0.0" r="0.2" stroke="black" stroke-width="0.01" fill="url(#d3)" />
<circle cx="-0.5" cy="-0.8660254037844386" r="0.2" stroke="black" stroke-width="0.01" fill="url(#d4)" />
<circle cx="-0.5" cy="0.8660254037844386" r="0.2" stroke="black" stroke-width="0.01" fill="url(#d5)" />
<circle cx="0.0" cy="-0.0" r="0.2" stroke="black" stroke-width="0.01" fill="url(#d6)" />
<circle cx="0.5" cy="-0.8660254037844386" r="0.2" stroke="black" stroke-width="0.01" fill="url(#d7)" />
<circle cx="0.5" cy="0.8660254037844386" r="0.2" stroke="black" stroke-width="0.01" fill="url(#d8)" />
<circle cx="1.0" cy="-0.0" r="0.2" stroke="black" stroke-width="0.01" fill="url(#d9)" />
<circle cx="1.5" cy="-0.8660254037844386" r="0.2" stroke="black" stroke-width="0.01" fill="url(#d10)" />
<circle cx="1.5" cy="0.8660254037844386" r="0.2" stroke="black" stroke-width="0.01" fill="url(#d11)" />
<circle cx="2.0" cy="-0.0" r="0.2" stroke="black" stroke-width="0.01" fill="url(#d12)" />
<circle cx="-2.0" cy="-1.1547005383792515" r="0.1" stroke="black" stroke-width="0.01" fill="url(#d13)" />
<circle cx="-2.0" cy="0.5773502691896257" r="0.1" stroke="black" stroke-width="0.01" fill="url(#d14)" />
<circle cx="-1.5" cy="-0.2886751345948129" r="0.1" stroke="black" stroke-width="0.01" fill="url(#d15)" />
<circle cx="-1.0" cy="-1.1547005383792515" r="0.1" stroke="black" stroke-width="0.01" fill="url(#d16)" />
<circle cx="-1.0" cy="0.5773502691896257" r="0.1" stroke="black" stroke-width="0.01" fill="url(#d17)" />
<circle cx="-0.5" cy="-0.2886751345948129" r="0.1" stroke="black" stroke-width="0.01" fill="url(#d18)" />
<circle cx="0.0" cy="-1.1547005383792515" r="0.1" stroke="black" stroke-width="0.01" fill="url(#d19)" />
<circle cx="0.0" cy="0.5773502691896257" r="0.1" stroke="black" stroke-width="0.01" fill="url(#d20)" />
<circle cx="0.5" cy="-0.2886751345948129" r="0.1" stroke="black" stroke-width="0.01" fill="url(#d21)" />
<circle cx="1.0" cy="-1.1547005383792515" r="0.1" stroke="black" stroke-width="0.01" fill="url(#d22)" />
<circle cx="1.0" cy="0.5773502691896257" r="0.1" stroke="black" stroke-width="0.01" fill="url(#d23)" />
<circle cx="1.5" cy="-0.2886751345948129" r="0.1" stroke="black" stroke-width="0.01" fill="url(#d24)" />
<circle cx="2.0" cy="-1.1547005383792515" r="0.1" stroke="black" stroke-width="0.01" fill="url(#d25)" />
<circle cx="2.0" cy="0.5773502691896257" r="0.1" stroke="black" stroke-width="0.01" fill="url(#d26)" />
</svg>