<?xml version="1.0" encoding="UTF-8"?>
<svg xmlns="http://www.w3.org/2000/svg" xmlns:xlink="http://www.w3.org/1999/xlink"
     width="500" height="357.14285714285717" viewBox="0 -5 7 5">
<defs>
<radialGradient cx="0" cy="-1" r="0.5" gradientUnits="userSpaceOnUse" id="d0">
<stop offset="0" stop-color="white" stop-opacity="0.7" />
<stop offset="1.7320508075688772" stop-color="dodgerblue" stop-opacity="0.7" />
</radialGradient>
<radialGradient cx="0" cy="-1" r="0.5" gradientUnits="userSpaceOnUse" id="d1">
<stop offset="0" stop-color="white" stop-opacity="0.7" />
<stop offset="1.7320508075688772" stop-color="dodgerblue" stop-opacity="0.7" />
</radialGradient>
<radialGradient cx="0" cy="-1" r="0.5" gradientUnits="userSpaceOnUse" id="d2">
<stop offset="0" stop-color="white" stop-opacity="0.7" />
<stop offset="1.7320508075688772" stop-color="red" stop-opacity="0.7" />
</radialGradient>
<radialGradient cx="0" cy="-1" r="0.5" gradientUnits="userSpaceOnUse" id="d3">
<stop offset="0" stop-color="white" stop-opacity="0.7" />
<stop offset="1.7320508075688772" stop-color="red" stop-opacity="0.7" />
</radialGradient>
<radialGradient cx="0" cy="-1" r="0.5" gradientUnits="userSpaceOnUse" id="d4">
<stop offset="0" stop-color="white" stop-opacity="0.7" />
<stop offset="1.7320508075688772" stop-color="dodgerblue" stop-opacity="0.7" />
</radialGradient>
<radialGradient cx="0" cy="-1" r="0.5" gradientUnits="userSpaceOnUse" id="d5">
<stop offset="0" stop-color="white" stop-opacity="0.7" />
<stop offset="1.7320508075688772" stop-color="dodgerblue" stop-opacity="0.7" />
</radialGradient>
<radialGradient cx="0" cy="-1" r="0.5" gradientUnits="userSpaceOnUse" id="d6">
<stop offset="0" stop-color="white" stop-opacity="0.7" />
<stop offset="1.7320508075688772" stop-color="red" stop-opacity="0.7" />
</radialGradient>
<radialGradient cx="0" cy="-1" r="0.5" gradientUnits="userSpaceOnUse" id="d7">
<stop offset="0" stop-color="white" stop-opacity="0.7" />
<stop offset="1.7320508075688772" stop-color="red" stop-opacity="0.7" />
</radialGradient>
</defs>
<path d="M 0,0 C -1.7320508075688772,-2 1.7320508075688772,-2 0,0 z" stroke="black" stroke-width="0.01" fill="url(#d0)" transform="translate(1.5 -1.5)
rotate(180 0 0)" />
<path d="M 0,0 C -1.7320508075688772,-2 1.7320508075688772,-2 0,0 z" stroke="black" stroke-width="0.01" fill="url(#d1)" transform="translate(1.5 -1.5)
rotate(0 0 0)" />
<path d="M 0,0 C -1.7320508075688772,-2 1.7320508075688772,-2 0,0 z" stroke="black" stroke-width="0.01" fill="url(#d2)" transform="translate(1.5 -1.5)
rotate(90 0 0)" />
<path d="M 0,0 C -1.7320508075688772,-2 1.7320508075688772,-2 0,0 z" stroke="black" stroke-width="0.01" fill="url(#d3)" transform="translate(1.5 -1.5)
rotate(270 0 0)" />
<path d="M 0,0 C -1.7320508075688772,-2 1.7320508075688772,-2 0,0 z" stroke="black" stroke-width="0.01" fill="url(#d4)" transform="translate(4.5 -3.232050807568877)
rotate(180 0 0)" />
<path d="M 0,0 C -1.7320508075688772,-2 1.7320508075688772,-2 0,0 z" stroke="black" stroke-width="0.01" fill="url(#d5)" transform="translate(4.5 -3.232050807568877)
rotate(0 0 0)" />
<path d="M 0,0 C -1.7320508075688772,-2 1.7320508075688772,-2 0,0 z" stroke="black" stroke-width="0.01" fill="url(#d6)" transform="translate(4.5 -3.232050807568877)
rotate(90 0 0)" />
<path d="M 0,0 C -1.7320508075688772,-2 1.7320508075688772,-2 0,0 z" stroke="black" stroke-width="0.01" fill="url(#d7)" transform="translate(4.5 -3.232050807568877)
rotate(270 0 0)" />
<path d="M1.5,-1.5 L4.5,-3.232050807568877" stroke="black" stroke-width="0.03" />
<path d="M1.5,-1.5 L4.5,-1.5" stroke="black" stroke-width="0.03" stroke-dasharray="0.05,0.05" />
<path d="M4.5,-1.5 L4.5,-3.232050807568877" stroke="black" stroke-width="0.03" stroke-dasharray="0.05,0.05" />
<path d="M1.9330127018922194,-1.75 A0.5,0.5,0,0,1,2.0,-1.5" stroke="black" stroke-width="0.03" fill="none" />
<text x="2.2244443697168013" y="-1.6941142838268906" font-size="0.3333333333333333" fill="black" text-anchor="middle" transform="translate(0,0.09999999999999999)">θ</text>
</svg>