<?xml version="1.0" encoding="UTF-8"?>
<svg xmlns="http://www.w3.org/2000/svg" xmlns:xlink="http://www.w3.org/1999/xlink"
     width="700" height="245.0" viewBox="-5.0 -1.75 10 3.5">
<defs>
<radialGradient cx="0" cy="-1" r="0.5" gradientUnits="userSpaceOnUse" id="d0">
<stop offset="0" stop-color="white" stop-opacity="0.7" />
<stop offset="1.7320508075688772" stop-color="dodgerblue" stop-opacity="0.7" />
</radialGradient>
<radialGradient cx="0" cy="0" r="0.5" gradientUnits="userSpaceOnUse" id="d1">
<stop offset="0" stop-color="white" stop-opacity="0.7" />
<stop offset="1.7320508075688772" stop-color="red" stop-opacity="0.7" />
</radialGradient>
<radialGradient cx="0" cy="-1" r="0.5" gradientUnits="userSpaceOnUse" id="d2">
<stop offset="0" stop-color="white" stop-opacity="0.7" />
<stop offset="1.7320508075688772" stop-color="dodgerblue" stop-opacity="0.7" />
</radialGradient>
<radialGradient cx="0" cy="-1" r="0.5" gradientUnits="userSpaceOnUse" id="d3">
<stop offset="0" stop-color="white" stop-opacity="0.7" />
<stop offset="1.7320508075688772" stop-color="dodgerblue" stop-opacity="0.7" />
</radialGradient>
<radialGradient cx="0" cy="-1" r="0.5" gradientUnits="userSpaceOnUse" id="d4">
<stop offset="0" stop-color="white" stop-opacity="0.7" />
<stop offset="1.7320508075688772" stop-color="red" stop-opacity="0.7" />
</radialGradient>
<radialGradient cx="0" cy="-1" r="0.5" gradientUnits="userSpaceOnUse" id="d5">
<stop offset="0" stop-color="white" stop-opacity="0.7" />
<stop offset="1.7320508075688772" stop-color="red" stop-opacity="0.7" />
</radialGradient>
<radialGradient cx="0" cy="-1" r="0.5" gradientUnits="userSpaceOnUse" id="d6">
<stop offset="0" stop-color="white" stop-opacity="0.7" />
<stop offset="1.7320508075688772" stop-color="dodgerblue" stop-opacity="0.7" />
</radialGradient>
<radialGradient cx="0" cy="-1" r="0.5" gradientUnits="userSpaceOnUse" id="d7">
<stop offset="0" stop-color="white" stop-opacity="0.7" />
<stop offset="1.7320508075688772" stop-color="dodgerblue" stop-opacity="0.7" />
</radialGradient>
<radialGradient cx="0" cy="-1" r="0.5" gradientUnits="userSpaceOnUse" id="d8">
<stop offset="0" stop-color="white" stop-opacity="0.7" />
<stop offset="1.7320508075688772" stop-color="red" stop-opacity="0.7" />
</radialGradient>
<radialGradient cx="0" cy="-1" r="0.5" gradientUnits="userSpaceOnUse" id="d9">
<stop offset="0" stop-color="white" stop-opacity="0.7" />
<stop offset="1.7320508075688772" stop-color="red" stop-opacity="0.7" />
</radialGradient>
<radialGradient cx="0" cy="-1" r="0.5" gradientUnits="userSpaceOnUse" id="d10">
<stop offset="0" stop-color="white" stop-opacity="0.7" />
<stop offset="1.7320508075688772" stop-color="dodgerblue" stop-opacity="0.7" />
</radialGradient>
</defs>
<g>
<path d="M 0,0 C -1.7320508075688772,-2 1.7320508075688772,-2 0,0 z" stroke="black" stroke-width="0.01" fill="url(#d0)" transform="translate(0 0)
rotate(180 0 0)" />
<ellipse cx="0" cy="0" rx="1" ry="0.25" stroke="black" stroke-width="0.01" fill="url(#d1)" transform="rotate(0 0 0)
translate(0 0)" />
<path d="M 0,0 C -1.7320508075688772,-2 1.7320508075688772,-2 0,0 z" stroke="black" stroke-width="0.01" fill="url(#d2)" transform="translate(0 0)
rotate(0 0 0)" />
</g>
<g>
<path d="M 0,0 C -1.7320508075688772,-2 1.7320508075688772,-2 0,0 z" stroke="black" stroke-width="0.01" fill="url(#d3)" transform="translate(3 0)
rotate(85 0 0)" />
<path d="M 0,0 C -1.7320508075688772,-2 1.7320508075688772,-2 0,0 z" stroke="black" stroke-width="0.01" fill="url(#d4)" transform="translate(3 0)
rotate(95 0 0)" />
<path d="M 0,0 C -1.7320508075688772,-2 1.7320508075688772,-2 0,0 z" stroke="black" stroke-width="0.01" fill="url(#d5)" transform="translate(3 0)
rotate(275 0 0)" />
<path d="M 0,0 C -1.7320508075688772,-2 1.7320508075688772,-2 0,0 z" stroke="black" stroke-width="0.01" fill="url(#d6)" transform="translate(3 0)
rotate(265 0 0)" />
</g>
<g>
<path d="M 0,0 C -1.7320508075688772,-2 1.7320508075688772,-2 0,0 z" stroke="black" stroke-width="0.01" fill="url(#d7)" transform="translate(-3 0)
rotate(85 0 0)" />
<path d="M 0,0 C -1.7320508075688772,-2 1.7320508075688772,-2 0,0 z" stroke="black" stroke-width="0.01" fill="url(#d8)" transform="translate(-3 0)
rotate(95 0 0)" />
<path d="M 0,0 C -1.7320508075688772,-2 1.7320508075688772,-2 0,0 z" stroke="black" stroke-width="0.01" fill="url(#d9)" transform="translate(-3 0)
rotate(275 0 0)" />
<path d="M 0,0 C -1.7320508075688772,-2 1.7320508075688772,-2 0,0 z" stroke="black" stroke-width="0.01" fill="url(#d10)" transform="translate(-3 0)
rotate(265 0 0)" />
</g>
<path d="M0,2 L0,-2" stroke="black" stroke-width="0.03" stroke-dasharray="0.05,0.05" />
</svg>