<?xml version="1.0" encoding="UTF-8"?>
<svg xmlns="http://www.w3.org/2000/svg" xmlns:xlink="http://www.w3.org/1999/xlink"
     width="500" height="325.0" viewBox="-2.0 -1.3 4 2.6">
<defs>
<radialGradient cx="-2.0" cy="0.0" r="0.2" gradientUnits="userSpaceOnUse" id="d0">
<stop offset="0" stop-color="white" stop-opacity="1" />
<stop offset="1" stop-color="blue" stop-opacity="1" />
</radialGradient>
<radialGradient cx="-1.5" cy="-0.8660254037844386" r="0.2" gradientUnits="userSpaceOnUse" id="d1">
<stop offset="0" stop-color="white" stop-opacity="1" />
<stop offset="1" stop-color="blue" stop-opacity="1" />
</radialGradient>
<radialGradient cx="-1.5" cy="0.8660254037844386" r="0.2" gradientUnits="userSpaceOnUse" id="d2">
<stop offset="0" stop-color="white" stop-opacity="1" />
<stop offset="1" stop-color="blue" stop-opacity="1" />
</radialGradient>
<radialGradient cx="-1.0" cy="0.0" r="0.2" gradientUnits="userSpaceOnUse" id="d3">
<stop offset="0" stop-color="white" stop-opacity="1" />
<stop offset="1" stop-color="blue" stop-opacity="1" />
</radialGradient>
<radialGradient cx="-0.5" cy="-0.8660254037844386" r="0.2" gradientUnits="userSpaceOnUse" id="d4">
<stop offset="0" stop-color="white" stop-opacity="1" />
<stop offset="1" stop-color="blue" stop-opacity="1" />
</radialGradient>
<radialGradient cx="-0.5" cy="0.8660254037844386" r="0.2" gradientUnits="userSpaceOnUse" id="d5">
<stop offset="0" stop-color="white" stop-opacity="1" />
<stop offset="1" stop-color="blue" stop-opacity="1" />
</radialGradient>
<radialGradient cx="0.0" cy="0.0" r="0.2" gradientUnits="userSpaceOnUse" id="d6">
<stop offset="0" stop-color="white" stop-opacity="1" />
<stop offset="1" stop-color="blue" stop-opacity="1" />
</radialGradient>
<radialGradient cx="0.5" cy="-0.8660254037844386" r="0.2" gradientUnits="userSpaceOnUse" id="d7">
<stop offset="0" stop-color="white" stop-opacity="1" />
<stop offset="1" stop-color="blue" stop-opacity="1" />
</radialGradient>
<radialGradient cx="0.5" cy="0.8660254037844386" r="0.2" gradientUnits="userSpaceOnUse" id="d8">
<stop offset="0" stop-color="white" stop-opacity="1" />
<stop offset="1" stop-color="blue" stop-opacity="1" />
</radialGradient>
<radialGradient cx="1.0" cy="0.0" r="0.2" gradientUnits="userSpaceOnUse" id="d9">
<stop offset="0" stop-color="white" stop-opacity="1" />
<stop offset="1" stop-color="blue" stop-opacity="1" />
</radialGradient>
<radialGradient cx="1.5" cy="-0.8660254037844386" r="0.2" gradientUnits="userSpaceOnUse" id="d10">
<stop offset="0" stop-color="white" stop-opacity="1" />
<stop offset="1" stop-color="blue" stop-opacity="1" />
</radialGradient>
<radialGradient cx="1.5" cy="0.8660254037844386" r="0.2" gradientUnits="userSpaceOnUse" id="d11">
<stop offset="0" stop-color="white" stop-opacity="1" />
<stop offset="1" stop-color="blue" stop-opacity="1" />
</radialGradient>
<radialGradient cx="2.0" cy="0.0" r="0.2" gradientUnits="userSpaceOnUse" id="d12">
<stop offset="0" stop-color="white" stop-opacity="1" />
<stop offset="1" stop-color="blue" stop-opacity="1" />
</radialGradient>
<radialGradient cx="-2.0" cy="-1.1547005383792515" r="0.1" gradientUnits="userSpaceOnUse" id="d13">
<stop offset="0" stop-color="white" stop-opacity="1" />
<stop offset="1" stop-color="red" stop-opacity="1" />
</radialGradient>
<radialGradient cx="-2.0" cy="0.5773502691896257" r="0.1" gradientUnits="userSpaceOnUse" id="d14">
<stop offset="0" stop-color="white" stop-opacity="1" />
<stop offset="1" stop-color="red" stop-opacity="1" />
</radialGradient>
<radialGradient cx="-1.5" cy="-0.2886751345948129" r="0.1" gradientUnits="userSpaceOnUse" id="d15">
<stop offset="0" stop-color="white" stop-opacity="1" />
<stop offset="1" stop-color="red" stop-opacity="1" />
</radialGradient>
<radialGradient cx="-1.0" cy="-1.1547005383792515" r="0.1" gradientUnits="userSpaceOnUse" id="d16">
<stop offset="0" stop-color="white" stop-opacity="1" />
<stop offset="1" stop-color="red" stop-opacity="1" />
</radialGradient>
<radialGradient cx="-1.0" cy="0.5773502691896257" r="0.1" gradientUnits="userSpaceOnUse" id="d17">
<stop offset="0" stop-color="white" stop-opacity="1" />
<stop offset="1" stop-color="red" stop-opacity="1" />
</radialGradient>
<radialGradient cx="-0.5" cy="-0.2886751345948129" r="0.1" gradientUnits="userSpaceOnUse" id="d18">
<stop offset="0" stop-color="white" stop-opacity="1" />
<stop offset="1" stop-color="red" stop-opacity="1" />
</radialGradient>
<radialGradient cx="0.0" cy="-1.1547005383792515" r="0.1" gradientUnits="userSpaceOnUse" id="d19">
<stop offset="0" stop-color="white" stop-opacity="1" />
<stop offset="1" stop-color="red" stop-opacity="1" />
</radialGradient>
<radialGradient cx="0.0" cy="0.5773502691896257" r="0.1" gradientUnits="userSpaceOnUse" id="d20">
<stop offset="0" stop-color="white" stop-opacity="1" />
<stop offset="1" stop-color="red" stop-opacity="1" />
</radialGradient>
<radialGradient cx="0.5" cy="-0.2886751345948129" r="0.1" gradientUnits="userSpaceOnUse" id="d21">
<stop offset="0" stop-color="white" stop-opacity="1" />
<stop offset="1" stop-color="red" stop-opacity="1" />
</radialGradient>
<radialGradient cx="1.0" cy="-1.1547005383792515" r="0.1" gradientUnits="userSpaceOnUse" id="d22">
<stop offset="0" stop-color="white" stop-opacity="1" />
<stop offset="1" stop-color="red" stop-opacity="1" />
</radialGradient>
<radialGradient cx="1.0" cy="0.5773502691896257" r="0.1" gradientUnits="userSpaceOnUse" id="d23">
<stop offset="0" stop-color="white" stop-opacity="1" />
<stop offset="1" stop-color="red" stop-opacity="1" />
</radialGradient>
<radialGradient cx="1.5" cy="-0.2886751345948129" r="0.1" gradientUnits="userSpaceOnUse" id="d24">
<stop offset="0" stop-color="white" stop-opacity="1" />
<stop offset="1" stop-color="red" stop-opacity="1" />
</radialGradient>
<radialGradient cx="2.0" cy="-1.1547005383792515" r="0.1" gradientUnits="userSpaceOnUse" id="d25">
<stop offset="0" stop-color="white" stop-opacity="1" />
<stop offset="1" stop-color="red" stop-opacity="1" />
</radialGradient>
<radialGradient cx="2.0" cy="0.5773502691896257" r="0.1" gradientUnits="userSpaceOnUse" id="d26">
<stop offset="0" stop-color="white" stop-opacity="1" />
<stop offset="1" stop-color="red" stop-opacity="1" />
</radialGradient>
<marker markerWidth="4.0" markerHeight="4.0" viewBox="-0.25 -0.5 1.0 1.0" orient="auto" id="d27">
<path d="M-0.25,0.5 L-0.25,-0.5 L0.75,0 Z" fill="red" />
</marker>
<marker markerWidth="4.0" markerHeight="4.0" viewBox="-0.25 -0.5 1.0 1.0" orient="auto" id="d28">
<path d="M-0.25,0.5 L-0.25,-0.5 L0.75,0 Z" fill="red" />
</marker>
</defs>
<g>
<g>
<path d="M-2.0,-0.0 L-1.0,-0.0" stroke="black" stroke-width="0.01" />
<path d="M-2.0,-0.0 L-1.5,-0.8660254037844386" stroke="black" stroke-width="0.01" />
<path d="M-2.0,-0.0 L-1.5,0.8660254037844386" stroke="black" stroke-width="0.01" />
<path d="M-2.0,-0.0 L-3.0,-0.0" stroke="black" stroke-width="0.01" />
<path d="M-2.0,-0.0 L-2.5,0.8660254037844386" stroke="black" stroke-width="0.01" />
<path d="M-2.0,-0.0 L-2.5,-0.8660254037844386" stroke="black" stroke-width="0.01" />
</g>
<g>
<path d="M-1.5,-0.8660254037844386 L-0.5,-0.8660254037844386" stroke="black" stroke-width="0.01" />
<path d="M-1.5,-0.8660254037844386 L-1.0,-1.7320508075688772" stroke="black" stroke-width="0.01" />
<path d="M-1.5,-0.8660254037844386 L-1.0,-0.0" stroke="black" stroke-width="0.01" />
<path d="M-1.5,-0.8660254037844386 L-2.5,-0.8660254037844386" stroke="black" stroke-width="0.01" />
<path d="M-1.5,-0.8660254037844386 L-2.0,-0.0" stroke="black" stroke-width="0.01" />
<path d="M-1.5,-0.8660254037844386 L-2.0,-1.7320508075688772" stroke="black" stroke-width="0.01" />
</g>
<g>
<path d="M-1.5,0.8660254037844386 L-0.5,0.8660254037844386" stroke="black" stroke-width="0.01" />
<path d="M-1.5,0.8660254037844386 L-1.0,-0.0" stroke="black" stroke-width="0.01" />
<path d="M-1.5,0.8660254037844386 L-1.0,1.7320508075688772" stroke="black" stroke-width="0.01" />
<path d="M-1.5,0.8660254037844386 L-2.5,0.8660254037844386" stroke="black" stroke-width="0.01" />
<path d="M-1.5,0.8660254037844386 L-2.0,1.7320508075688772" stroke="black" stroke-width="0.01" />
<path d="M-1.5,0.8660254037844386 L-2.0,-0.0" stroke="black" stroke-width="0.01" />
</g>
<g>
<path d="M-1.0,-0.0 L0.0,-0.0" stroke="black" stroke-width="0.01" />
<path d="M-1.0,-0.0 L-0.5,-0.8660254037844386" stroke="black" stroke-width="0.01" />
<path d="M-1.0,-0.0 L-0.5,0.8660254037844386" stroke="black" stroke-width="0.01" />
<path d="M-1.0,-0.0 L-2.0,-0.0" stroke="black" stroke-width="0.01" />
<path d="M-1.0,-0.0 L-1.5,0.8660254037844386" stroke="black" stroke-width="0.01" />
<path d="M-1.0,-0.0 L-1.5,-0.8660254037844386" stroke="black" stroke-width="0.01" />
</g>
<g>
<path d="M-0.5,-0.8660254037844386 L0.5,-0.8660254037844386" stroke="black" stroke-width="0.01" />
<path d="M-0.5,-0.8660254037844386 L0.0,-1.7320508075688772" stroke="black" stroke-width="0.01" />
<path d="M-0.5,-0.8660254037844386 L0.0,-0.0" stroke="black" stroke-width="0.01" />
<path d="M-0.5,-0.8660254037844386 L-1.5,-0.8660254037844386" stroke="black" stroke-width="0.01" />
<path d="M-0.5,-0.8660254037844386 L-1.0,-0.0" stroke="black" stroke-width="0.01" />
<path d="M-0.5,-0.8660254037844386 L-1.0,-1.7320508075688772" stroke="black" stroke-width="0.01" />
</g>
<g>
<path d="M-0.5,0.8660254037844386 L0.5,0.8660254037844386" stroke="black" stroke-width="0.01" />
<path d="M-0.5,0.8660254037844386 L0.0,-0.0" stroke="black" stroke-width="0.01" />
<path d="M-0.5,0.8660254037844386 L0.0,1.7320508075688772" stroke="black" stroke-width="0.01" />
<path d="M-0.5,0.8660254037844386 L-1.5,0.8660254037844386" stroke="black" stroke-width="0.01" />
<path d="M-0.5,0.8660254037844386 L-1.0,1.7320508075688772" stroke="black" stroke-width="0.01" />
<path d="M-0.5,0.8660254037844386 L-1.0,-0.0" stroke="black" stroke-width="0.01" />
</g>
<g>
<path d="M0.0,-0.0 L1.0,-0.0" stroke="black" stroke-width="0.01" />
<path d="M0.0,-0.0 L0.5,-0.8660254037844386" stroke="black" stroke-width="0.01" />
<path d="M0.0,-0.0 L0.5,0.8660254037844386" stroke="black" stroke-width="0.01" />
<path d="M0.0,-0.0 L-1.0,-0.0" stroke="black" stroke-width="0.01" />
<path d="M0.0,-0.0 L-0.5,0.8660254037844386" stroke="black" stroke-width="0.01" />
<path d="M0.0,-0.0 L-0.5,-0.8660254037844386" stroke="black" stroke-width="0.01" />
</g>
<g>
<path d="M0.5,-0.8660254037844386 L1.5,-0.8660254037844386" stroke="black" stroke-width="0.01" />
<path d="M0.5,-0.8660254037844386 L1.0,-1.7320508075688772" stroke="black" stroke-width="0.01" />
<path d="M0.5,-0.8660254037844386 L1.0,-0.0" stroke="black" stroke-width="0.01" />
<path d="M0.5,-0.8660254037844386 L-0.5,-0.8660254037844386" stroke="black" stroke-width="0.01" />
<path d="M0.5,-0.8660254037844386 L0.0,-0.0" stroke="black" stroke-width="0.01" />
<path d="M0.5,-0.8660254037844386 L0.0,-1.7320508075688772" stroke="black" stroke-width="0.01" />
</g>
<g>
<path d="M0.5,0.8660254037844386 L1.5,0.8660254037844386" stroke="black" stroke-width="0.01" />
<path d="M0.5,0.8660254037844386 L1.0,-0.0" stroke="black" stroke-width="0.01" />
<path d="M0.5,0.8660254037844386 L1.0,1.7320508075688772" stroke="black" stroke-width="0.01" />
<path d="M0.5,0.8660254037844386 L-0.5,0.8660254037844386" stroke="black" stroke-width="0.01" />
<path d="M0.5,0.8660254037844386 L0.0,1.7320508075688772" stroke="black" stroke-width="0.01" />
<path d="M0.5,0.8660254037844386 L0.0,-0.0" stroke="black" stroke-width="0.01" />
</g>
<g>
<path d="M1.0,-0.0 L2.0,-0.0" stroke="black" stroke-width="0.01" />
<path d="M1.0,-0.0 L1.5,-0.8660254037844386" stroke="black" stroke-width="0.01" />
<path d="M1.0,-0.0 L1.5,0.8660254037844386" stroke="black" stroke-width="0.01" />
<path d="M1.0,-0.0 L0.0,-0.0" stroke="black" stroke-width="0.01" />
<path d="M1.0,-0.0 L0.5,0.8660254037844386" stroke="black" stroke-width="0.01" />
<path d="M1.0,-0.0 L0.5,-0.8660254037844386" stroke="black" stroke-width="0.01" />
</g>
<g>
<path d="M1.5,-0.8660254037844386 L2.5,-0.8660254037844386" stroke="black" stroke-width="0.01" />
<path d="M1.5,-0.8660254037844386 L2.0,-1.7320508075688772" stroke="black" stroke-width="0.01" />
<path d="M1.5,-0.8660254037844386 L2.0,-0.0" stroke="black" stroke-width="0.01" />
<path d="M1.5,-0.8660254037844386 L0.5,-0.8660254037844386" stroke="black" stroke-width="0.01" />
<path d="M1.5,-0.8660254037844386 L1.0,-0.0" stroke="black" stroke-width="0.01" />
<path d="M1.5,-0.8660254037844386 L1.0,-1.7320508075688772" stroke="black" stroke-width="0.01" />
</g>
<g>
<path d="M1.5,0.8660254037844386 L2.5,0.8660254037844386" stroke="black" stroke-width="0.01" />
<path d="M1.5,0.8660254037844386 L2.0,-0.0" stroke="black" stroke-width="0.01" />
<path d="M1.5,0.8660254037844386 L2.0,1.7320508075688772" stroke="black" stroke-width="0.01" />
<path d="M1.5,0.8660254037844386 L0.5,0.8660254037844386" stroke="black" stroke-width="0.01" />
<path d="M1.5,0.8660254037844386 L1.0,1.7320508075688772" stroke="black" stroke-width="0.01" />
<path d="M1.5,0.8660254037844386 L1.0,-0.0" stroke="black" stroke-width="0.01" />
</g>
<g>
<path d="M2.0,-0.0 L3.0,-0.0" stroke="black" stroke-width="0.01" />
<path d="M2.0,-0.0 L2.5,-0.8660254037844386" stroke="black" stroke-width="0.01" />
<path d="M2.0,-0.0 L2.5,0.8660254037844386" stroke="black" stroke-width="0.01" />
<path d="M2.0,-0.0 L1.0,-0.0" stroke="black" stroke-width="0.01" />
<path d="M2.0,-0.0 L1.5,0.8660254037844386" stroke="black" stroke-width="0.01" />
<path d="M2.0,-0.0 L1.5,-0.8660254037844386" stroke="black" stroke-width="0.01" />
</g>
<g></g>
<g></g>
<g></g>
<g></g>
<g></g>
<g></g>
<g></g>
<g></g>
<g></g>
<g></g>
<g></g>
<g></g>
<g></g>
<g></g>
<g>
<circle cx="-2.0" cy="-0.0" r="0.2" stroke="black" stroke-width="0.01" fill="url(#d0)" />
</g>
<g>
<circle cx="-1.5" cy="-0.8660254037844386" r="0.2" stroke="black" stroke-width="0.01" fill="url(#d1)" />
</g>
<g>
<circle cx="-1.5" cy="0.8660254037844386" r="0.2" stroke="black" stroke-width="0.01" fill="url(#d2)" />
</g>
<g>
<circle cx="-1.0" cy="-0.0" r="0.2" stroke="black" stroke-width="0.01" fill="url(#d3)" />
</g>
<g>
<circle cx="-0.5" cy="-0.8660254037844386" r="0.2" stroke="black" stroke-width="0.01" fill="url(#d4)" />
</g>
<g>
<circle cx="-0.5" cy="0.8660254037844386" r="0.2" stroke="black" stroke-width="0.01" fill="url(#d5)" />
</g>
<g>
<circle cx="0.0" cy="-0.0" r="0.2" stroke="black" stroke-width="0.01" fill="url(#d6)" />
</g>
<g>
<circle cx="0.5" cy="-0.8660254037844386" r="0.2" stroke="black" stroke-width="0.01" fill="url(#d7)" />
</g>
<g>
<circle cx="0.5" cy="0.8660254037844386" r="0.2" stroke="black" stroke-width="0.01" fill="url(#d8)" />
</g>
<g>
<circle cx="1.0" cy="-0.0" r="0.2" stroke="black" stroke-width="0.01" fill="url(#d9)" />
</g>
<g>
<circle cx="1.5" cy="-0.8660254037844386" r="0.2" stroke="black" stroke-width="0.01" fill="url(#d10)" />
</g>
<g>
<circle cx="1.5" cy="0.8660254037844386" r="0.2" stroke="black" stroke-width="0.01" fill="url(#d11)" />
</g>
<g>
<circle cx="2.0" cy="-0.0" r="0.2" stroke="black" stroke-width="0.01" fill="url(#d12)" />
</g>
<g>
<circle cx="-2.0" cy="-1.1547005383792515" r="0.1" stroke="black" stroke-width="0.01" fill="url(#d13)" />
</g>
<g>
<circle cx="-2.0" cy="0.5773502691896257" r="0.1" stroke="black" stroke-width="0.01" fill="url(#d14)" />
</g>
<g>
<circle cx="-1.5" cy="-0.2886751345948129" r="0.1" stroke="black" stroke-width="0.01" fill="url(#d15)" />
</g>
<g>
<circle cx="-1.0" cy="-1.1547005383792515" r="0.1" stroke="black" stroke-width="0.01" fill="url(#d16)" />
</g>
<g>
<circle cx="-1.0" cy="0.5773502691896257" r="0.1" stroke="black" stroke-width="0.01" fill="url(#d17)" />
</g>
<g>
<circle cx="-0.5" cy="-0.2886751345948129" r="0.1" stroke="black" stroke-width="0.01" fill="url(#d18)" />
</g>
<g>
<circle cx="0.0" cy="-1.1547005383792515" r="0.1" stroke="black" stroke-width="0.01" fill="url(#d19)" />
</g>
<g>
<circle cx="0.0" cy="0.5773502691896257" r="0.1" stroke="black" stroke-width="0.01" fill="url(#d20)" />
</g>
<g>
<circle cx="0.5" cy="-0.2886751345948129" r="0.1" stroke="black" stroke-width="0.01" fill="url(#d21)" />
</g>
<g>
<circle cx="1.0" cy="-1.1547005383792515" r="0.1" stroke="black" stroke-width="0.01" fill="url(#d22)" />
</g>
<g>
<circle cx="1.0" cy="0.5773502691896257" r="0.1" stroke="black" stroke-width="0.01" fill="url(#d23)" />
</g>
<g>
<circle cx="1.5" cy="-0.2886751345948129" r="0.1" stroke="black" stroke-width="0.01" fill="url(#d24)" />
</g>
<g>
<circle cx="2.0" cy="-1.1547005383792515" r="0.1" stroke="black" stroke-width="0.01" fill="url(#d25)" />
</g>
<g>
<circle cx="2.0" cy="0.5773502691896257" r="0.1" stroke="black" stroke-width="0.01" fill="url(#d26)" />
</g>
</g>
<g>
<path d="M0.0,-0.0 L0.88,-0.0" stroke="red" stroke-width="0.04" fill="none" marker-end="url(#d27)" />
<path d="M0.0,-0.0 L0.44,-0.762102355330306" stroke="red" stroke-width="0.04" fill="none" marker-end="url(#d28)" />
<text x="1.0" y="-0.0" font-size="0.4" fill="red">a₁</text>
<text x="0.5" y="-0.8660254037844386" font-size="0.4" fill="red">a₂</text>
</g>
</svg>